<svg width="95" height="22" viewBox="0 0 95 22" fill="none" xmlns="http://www.w3.org/2000/svg">
<path d="M19.8621 1.33838C19.8624 2.24493 19.8655 3.14938 19.8687 4.05243C19.8775 6.5329 19.8862 9.00286 19.8349 11.477L19.8349 11.4771C19.7455 15.8204 16.2534 19.7458 11.9645 20.4152L11.9645 20.4152C6.47951 21.2714 1.70889 17.7851 0.834708 12.26C0.78173 11.9249 0.755032 11.5802 0.754539 11.2384L0.754538 11.2381C0.74869 8.19224 0.749773 5.14554 0.750856 2.09813C0.750946 1.84488 0.751036 1.59163 0.751122 1.33838H19.8621Z" stroke="white" stroke-width="1.5"/>
<path d="M23.6895 1.38633C24.6168 1.38631 25.5439 1.38605 26.4708 1.38579C28.6102 1.3852 30.749 1.38461 32.8883 1.38689L32.8883 1.38689C37.8229 1.39203 41.6934 4.64086 42.4114 9.52339L42.4114 9.52344C43.2091 14.9453 39.4731 19.4115 34.7515 20.2088L34.7512 20.2089C34.1781 20.3059 33.5799 20.3455 32.976 20.3487C32.9759 20.3487 32.9758 20.3487 32.9756 20.3487L32.9796 21.0987M23.6895 1.38633L22.941 20.3553H22.9424H22.9439H22.9453H22.9468H22.9482H22.9497H22.9511H22.9525H22.954H22.9554H22.9569H22.9583H22.9597H22.9612H22.9626H22.9641H22.9655H22.9669H22.9684H22.9698H22.9712H22.9726H22.9741H22.9755H22.9769H22.9783H22.9798H22.9812H22.9826H22.984H22.9855H22.9869H22.9883H22.9897H22.9911H22.9925H22.994H22.9954H22.9968H22.9982H22.9996H23.001H23.0024H23.0038H23.0052H23.0066H23.008H23.0095H23.0109H23.0123H23.0137H23.0151H23.0165H23.0179H23.0193H23.0206H23.022H23.0234H23.0248H23.0262H23.0276H23.029H23.0304H23.0318H23.0332H23.0346H23.0359H23.0373H23.0387H23.0401H23.0415H23.0429H23.0442H23.0456H23.047H23.0484H23.0498H23.0511H23.0525H23.0539H23.0552H23.0566H23.058H23.0594H23.0607H23.0621H23.0635H23.0648H23.0662H23.0676H23.0689H23.0703H23.0717H23.073H23.0744H23.0757H23.0771H23.0785H23.0798H23.0812H23.0825H23.0839H23.0852H23.0866H23.0879H23.0893H23.0906H23.092H23.0933H23.0947H23.096H23.0974H23.0987H23.1001H23.1014H23.1028H23.1041H23.1055H23.1068H23.1081H23.1095H23.1108H23.1122H23.1135H23.1148H23.1162H23.1175H23.1188H23.1202H23.1215H23.1228H23.1242H23.1255H23.1268H23.1281H23.1295H23.1308H23.1321H23.1334H23.1348H23.1361H23.1374H23.1387H23.1401H23.1414H23.1427H23.144H23.1453H23.1467H23.148H23.1493H23.1506H23.1519H23.1532H23.1545H23.1559H23.1572H23.1585H23.1598H23.1611H23.1624H23.1637H23.165H23.1663H23.1676H23.1689H23.1703H23.1716H23.1729H23.1742H23.1755H23.1768H23.1781H23.1794H23.1807H23.182H23.1833H23.1846H23.1859H23.1871H23.1884H23.1897H23.191H23.1923H23.1936H23.1949H23.1962H23.1975H23.1988H23.2001H23.2014H23.2026H23.2039H23.2052H23.2065H23.2078H23.2091H23.2104H23.2116H23.2129H23.2142H23.2155H23.2168H23.218H23.2193H23.2206H23.2219H23.2232H23.2244H23.2257H23.227H23.2283H23.2295H23.2308H23.2321H23.2334H23.2346H23.2359H23.2372H23.2384H23.2397H23.241H23.2422H23.2435H23.2448H23.246H23.2473H23.2486H23.2498H23.2511H23.2524H23.2536H23.2549H23.2562H23.2574H23.2587H23.2599H23.2612H23.2625H23.2637H23.265H23.2662H23.2675H23.2687H23.27H23.2712H23.2725H23.2738H23.275H23.2763H23.2775H23.2788H23.28H23.2813H23.2825H23.2838H23.285H23.2863H23.2875H23.2888H23.29H23.2913H23.2925H23.2937H23.295H23.2962H23.2975H23.2987H23.3H23.3012H23.3025H23.3037H23.3049H23.3062H23.3074H23.3087H23.3099H23.3111H23.3124H23.3136H23.3148H23.3161H23.3173H23.3186H23.3198H23.321H23.3223H23.3235H23.3247H23.326H23.3272H23.3284H23.3297H23.3309H23.3321H23.3333H23.3346H23.3358H23.337H23.3383H23.3395H23.3407H23.3419H23.3432H23.3444H23.3456H23.3468H23.3481H23.3493H23.3505H23.3517H23.353H23.3542H23.3554H23.3566H23.3579H23.3591H23.3603H23.3615H23.3627H23.364H23.3652H23.3664H23.3676H23.3688H23.3701H23.3713H23.3725H23.3737H23.3749H23.3761H23.3774H23.3786H23.3798H23.381H23.3822H23.3834H23.3846H23.3859H23.3871H23.3883H23.3895H23.3907H23.3919H23.3931H23.3943H23.3955H23.3968H23.398H23.3992H23.4004H23.4016H23.4028H23.404H23.4052H23.4064H23.4076H23.4088H23.41H23.4112H23.4125H23.4137H23.4149H23.4161H23.4173H23.4185H23.4197H23.4209H23.4221H23.4233H23.4245H23.4257H23.4269H23.4281H23.4293H23.4305H23.4317H23.4329H23.4341H23.4353H23.4365H23.4377H23.4389H23.4401H23.4413H23.4425H23.4437H23.4449H23.4461H23.4473H23.4485H23.4497H23.4509H23.4521H23.4533H23.4545H23.4557H23.4569H23.4581H23.4593H23.4605H23.4616H23.4628H23.464H23.4652H23.4664H23.4676H23.4688H23.47H23.4712H23.4724H23.4736H23.4748H23.476H23.4772H23.4784H23.4795H23.4807H23.4819H23.4831H23.4843H23.4855H23.4867H23.4879H23.4891H23.4903H23.4914H23.4926H23.4938H23.495H23.4962H23.4974H23.4986H23.4998H23.501H23.5021H23.5033H23.5045H23.5057H23.5069H23.5081H23.5093H23.5105H23.5117H23.5128H23.514H23.5152H23.5164H23.5176H23.5188H23.52H23.5211H23.5223H23.5235H23.5247H23.5259H23.5271H23.5283H23.5294H23.5306H23.5318H23.533H23.5342H23.5354H23.5366H23.5377H23.5389H23.5401H23.5413H23.5425H23.5437H23.5448H23.546H23.5472H23.5484H23.5496H23.5508H23.5519H23.5531H23.5543H23.5555H23.5567H23.5579H23.559H23.5602H23.5614H23.5626H23.5638H23.565H23.5661H23.5673H23.5685H23.5697H23.5709H23.5721H23.5732H23.5744H23.5756H23.5768H23.578H23.5792H23.5803H23.5815H23.5827H23.5839H23.5851H23.5862H23.5874H23.5886H23.5898H23.591C23.6238 20.3553 23.6567 20.3553 23.6895 20.3553M23.6895 1.38633V20.3553M23.6895 1.38633V20.3553M32.9796 21.0987C30.6736 21.1097 28.3677 21.1081 26.0618 21.1064C25.2382 21.1059 24.4146 21.1053 23.591 21.1053H23.6895V20.3553M32.9796 21.0987C33.6124 21.0954 34.2529 21.0539 34.8764 20.9484L32.9796 21.0987Z" stroke="white" stroke-width="1.5"/>
<path d="M52.5592 0.874023H53.4001V6.50349C53.4001 7.08202 53.2535 7.59866 52.9596 8.05397C52.6658 8.50927 52.2576 8.86788 51.7345 9.12924C51.2114 9.3906 50.6033 9.52156 49.9109 9.52156C49.2184 9.52156 48.6145 9.39005 48.0896 9.12703C47.5648 8.86402 47.156 8.50596 46.8621 8.05176C46.5683 7.59811 46.4216 7.08202 46.4216 6.50349V0.874023H47.2625V6.44934C47.2625 6.90078 47.372 7.30249 47.5905 7.65557C47.8095 8.00866 48.1172 8.28604 48.5146 8.48772C48.912 8.68996 49.377 8.79053 49.9109 8.79053C50.4447 8.79053 50.9104 8.68941 51.3096 8.48772C51.7082 8.28549 52.0164 8.0081 52.2336 7.65557C52.4509 7.30249 52.5598 6.90078 52.5598 6.44934L52.5592 0.874023Z" fill="white" stroke="white" stroke-width="0.4" stroke-miterlimit="10"/>
<path d="M62.385 0.874023V9.37624H61.5668L56.1259 2.25652H56.0541V9.37624H55.2132V0.874023H56.0272L61.4861 8.00203H61.5579V0.874023H62.385Z" fill="white" stroke="white" stroke-width="0.4" stroke-miterlimit="10"/>
<path d="M65.0378 0.874023V9.37624H64.1969V0.874023H65.0378Z" fill="white" stroke="white" stroke-width="0.4" stroke-miterlimit="10"/>
<path d="M67.323 9.43786C67.1458 9.43786 66.9938 9.37929 66.8663 9.26159C66.7389 9.1439 66.6754 9.00355 66.6754 8.84054C66.6754 8.67754 66.7389 8.53664 66.8663 8.41894C66.9938 8.30125 67.1458 8.24268 67.323 8.24268C67.5001 8.24268 67.6522 8.3018 67.7796 8.41894C67.9071 8.53664 67.9706 8.67699 67.9706 8.84054C67.9706 8.94829 67.9412 9.04831 67.8826 9.13948C67.8239 9.23065 67.7461 9.30359 67.6486 9.35719C67.551 9.41134 67.4427 9.43786 67.3224 9.43786H67.323Z" fill="white" stroke="white" stroke-width="0.4" stroke-miterlimit="10"/>
<path d="M69.9292 9.37568V0.874023H72.9013C73.5549 0.874023 74.1013 0.982877 74.54 1.20003C74.9793 1.41719 75.3103 1.71778 75.5335 2.1007C75.7567 2.48418 75.8687 2.92346 75.8687 3.41855C75.8687 3.91365 75.7567 4.35127 75.5335 4.73033C75.3103 5.10938 74.9799 5.40555 74.5418 5.61884C74.1043 5.83213 73.5615 5.93877 72.9139 5.93877H70.3822V5.22873H72.8911C73.3705 5.22873 73.7703 5.15524 74.0893 5.00882C74.4083 4.86239 74.6471 4.65297 74.8045 4.38222C74.9619 4.11091 75.0403 3.78987 75.0403 3.41911C75.0403 3.04834 74.9607 2.72399 74.8021 2.4455C74.6429 2.16756 74.4041 1.95206 74.0851 1.80011C73.7661 1.64816 73.3633 1.5719 72.878 1.5719H70.7689V9.37624H69.928L69.9292 9.37568ZM73.99 5.53982L76.2565 9.37568H75.2851L73.0414 5.53982H73.99Z" fill="white" stroke="white" stroke-width="0.4" stroke-miterlimit="10"/>
<path d="M82.6035 2.9995C82.5527 2.52651 82.3264 2.14967 81.9248 1.87063C81.5232 1.59103 81.0181 1.45123 80.4094 1.45123C79.9809 1.45123 79.6039 1.5192 79.2783 1.65458C78.9527 1.79051 78.6983 1.97782 78.514 2.21708C78.3296 2.45634 78.2375 2.7282 78.2375 3.03266C78.2375 3.257 78.2901 3.45315 78.3949 3.62224C78.4996 3.79132 78.6415 3.93554 78.8198 4.05599C78.9982 4.17645 79.1963 4.27923 79.4135 4.36543C79.6308 4.45107 79.8504 4.52346 80.0725 4.58148L81.0438 4.83897C81.3377 4.91357 81.6316 5.00916 81.9254 5.1252C82.2193 5.24123 82.488 5.38766 82.7328 5.56337C82.977 5.73909 83.1733 5.95348 83.3217 6.2071C83.4702 6.46073 83.5444 6.76408 83.5444 7.11827C83.5444 7.57192 83.4169 7.98026 83.1619 8.34274C82.907 8.70522 82.5413 8.99255 82.0649 9.20418C81.5885 9.41581 81.0169 9.5219 80.352 9.5219C79.7253 9.5219 79.1813 9.42576 78.7199 9.23347C78.2584 9.04118 77.8957 8.77484 77.6318 8.43447C77.3679 8.09409 77.2194 7.69956 77.1865 7.25144H78.0496C78.0795 7.58629 78.1992 7.86975 78.4093 8.10238C78.6193 8.33501 78.8916 8.51127 79.2274 8.63173C79.5632 8.75219 79.9378 8.81242 80.3514 8.81242C80.8098 8.81242 81.2186 8.74114 81.5765 8.59858C81.9344 8.45602 82.2163 8.25654 82.4216 8.00071C82.6269 7.74487 82.7298 7.44649 82.7298 7.10612C82.7298 6.81823 82.649 6.57677 82.4868 6.38171C82.3252 6.18666 82.0996 6.02255 81.8099 5.88994C81.5208 5.75732 81.1857 5.63963 80.805 5.53685L79.7032 5.23792C78.9808 5.03844 78.42 4.76327 78.0214 4.41184C77.6228 4.06042 77.4235 3.61229 77.4235 3.06692C77.4235 2.6105 77.5564 2.20824 77.8215 1.86068C78.0867 1.51312 78.4464 1.24237 78.9006 1.04676C79.3549 0.851709 79.8654 0.753906 80.4316 0.753906C80.9978 0.753906 81.5107 0.850604 81.9512 1.04455C82.3917 1.2385 82.7418 1.50483 83.0009 1.84355C83.2601 2.18282 83.3989 2.56796 83.4169 2.9995H82.6029H82.6035Z" fill="white" stroke="white" stroke-width="0.4" stroke-miterlimit="10"/>
<path d="M85.2537 0.874023H86.2251L89.5659 8.27996H89.6467L92.9875 0.874023H93.9589V9.37624H93.1677V2.51346H93.0958L89.989 9.37568H89.2248L86.118 2.51346H86.0461V9.37568H85.2549V0.874023H85.2537Z" fill="white" stroke="white" stroke-width="0.4" stroke-miterlimit="10"/>
<path d="M46.8937 21.2079C46.7165 21.2079 46.5645 21.1493 46.437 21.0316C46.3095 20.9139 46.2461 20.7736 46.2461 20.6106C46.2461 20.4476 46.3095 20.3067 46.437 20.189C46.5645 20.0713 46.7165 20.0127 46.8937 20.0127C47.0708 20.0127 47.2228 20.0718 47.3503 20.189C47.4778 20.3067 47.5412 20.447 47.5412 20.6106C47.5412 20.7183 47.5119 20.8183 47.4533 20.9095C47.3946 21.0007 47.3168 21.0736 47.2192 21.1272C47.1217 21.1814 47.0134 21.2079 46.8931 21.2079H46.8937Z" fill="white" stroke="white" stroke-width="0.4" stroke-miterlimit="10"/>
<path d="M52.476 21.1458H49.778V12.6436H52.6376C53.5156 12.6436 54.2673 12.8126 54.8927 13.1503C55.5175 13.4879 55.9963 13.9725 56.3291 14.6035C56.6619 15.2345 56.8283 15.9915 56.8283 16.8745C56.8283 17.7575 56.6583 18.53 56.3177 19.1682C55.9772 19.8058 55.4828 20.2954 54.8341 20.6358C54.1853 20.9761 53.3989 21.1463 52.4754 21.1463L52.476 21.1458ZM50.6188 20.4484H52.4263C53.2175 20.4484 53.8801 20.3048 54.4139 20.0169C54.9472 19.729 55.3476 19.3179 55.6145 18.7841C55.8814 18.2498 56.0149 17.6133 56.0149 16.8745C56.0119 16.1412 55.8808 15.5102 55.6217 14.9814C55.3625 14.4526 54.9789 14.0476 54.4708 13.7652C53.9627 13.4829 53.3354 13.342 52.5891 13.342H50.6194V20.449L50.6188 20.4484Z" fill="white" stroke="white" stroke-width="0.4" stroke-miterlimit="10"/>
<path d="M58.8224 21.1458V12.6436H64.164V13.3409H59.6633V16.5419H63.881V17.2392H59.6633V20.4484H64.2544V21.1458H58.8224Z" fill="white" stroke="white" stroke-width="0.4" stroke-miterlimit="10"/>
<path d="M71.299 14.7695C71.2481 14.2965 71.0219 13.9197 70.6203 13.6406C70.2187 13.3611 69.7135 13.2213 69.1049 13.2213C68.6763 13.2213 68.2993 13.2892 67.9737 13.4246C67.6481 13.5605 67.3938 13.7478 67.2094 13.9871C67.0251 14.2264 66.9329 14.4982 66.9329 14.8027C66.9329 15.027 66.9856 15.2232 67.0903 15.3923C67.1951 15.5613 67.3369 15.7056 67.5153 15.826C67.6936 15.9465 67.8917 16.0492 68.109 16.1354C68.3262 16.2211 68.5459 16.2935 68.7679 16.3515L69.7393 16.609C70.0331 16.6836 70.327 16.7792 70.6209 16.8952C70.9147 17.0113 71.1834 17.1577 71.4282 17.3334C71.6724 17.5091 71.8687 17.7235 72.0172 17.9771C72.1656 18.2307 72.2398 18.5341 72.2398 18.8883C72.2398 19.3419 72.1123 19.7503 71.8574 20.1128C71.6024 20.4752 71.2367 20.7626 70.7603 20.9742C70.2839 21.1858 69.7123 21.2919 69.0474 21.2919C68.4208 21.2919 67.8768 21.1958 67.4153 21.0035C66.9539 20.8112 66.5912 20.5449 66.3272 20.2045C66.0633 19.8641 65.9149 19.4696 65.882 19.0215H66.745C66.7749 19.3563 66.8946 19.6398 67.1047 19.8724C67.3148 20.105 67.5871 20.2813 67.9228 20.4017C68.2586 20.5222 68.6333 20.5824 69.0468 20.5824C69.5053 20.5824 69.914 20.5112 70.2719 20.3686C70.6298 20.226 70.9117 20.0266 71.117 19.7707C71.3223 19.5149 71.4252 19.2165 71.4252 18.8761C71.4252 18.5883 71.3444 18.3468 71.1822 18.1517C71.0207 17.9567 70.795 17.7926 70.5054 17.66C70.2163 17.5273 69.8811 17.4096 69.5005 17.3069L68.3986 17.0079C67.6762 16.8085 67.1155 16.5333 66.7169 16.1819C66.3183 15.8304 66.119 15.3823 66.119 14.8369C66.119 14.3805 66.2518 13.9783 66.517 13.6307C66.7821 13.2831 67.1418 13.0124 67.5961 12.8168C68.0503 12.6217 68.5608 12.5239 69.127 12.5239C69.6932 12.5239 70.2061 12.6206 70.6466 12.8146C71.0871 13.0085 71.4372 13.2749 71.6964 13.6136C71.9555 13.9528 72.0944 14.338 72.1123 14.7695H71.299Z" fill="white" stroke="white" stroke-width="0.4" stroke-miterlimit="10"/>
<path d="M75.0693 12.644V21.1463H74.2284V12.644H75.0693Z" fill="white" stroke="white" stroke-width="0.4" stroke-miterlimit="10"/>
<path d="M83.8486 15.3011C83.7649 15.0187 83.6416 14.754 83.48 14.5059C83.3184 14.2584 83.1179 14.0412 82.8797 13.8545C82.6415 13.6677 82.3674 13.5218 82.0567 13.4163C81.7467 13.3113 81.4008 13.2588 81.0201 13.2588C80.4204 13.2588 79.8842 13.4025 79.4102 13.6904C78.9368 13.9782 78.5627 14.3932 78.2886 14.9358C78.0145 15.4784 77.8774 16.1316 77.8774 16.8952C77.8774 17.6588 78.0151 18.3081 78.291 18.8507C78.5669 19.3933 78.9452 19.8088 79.4263 20.0984C79.9075 20.3879 80.4582 20.5321 81.0788 20.5321C81.6456 20.5321 82.1459 20.4161 82.5804 20.1835C83.0149 19.9508 83.3543 19.6187 83.5991 19.1872C83.8433 18.7557 83.9624 18.2423 83.9564 17.6472L84.2263 17.7262H81.2769V17.0289H84.7751V17.7262C84.7751 18.4512 84.6159 19.0783 84.2987 19.6066C83.9809 20.1354 83.5446 20.5437 82.9904 20.8311C82.4356 21.1189 81.7988 21.2626 81.0794 21.2626C80.2762 21.2626 79.573 21.0836 78.9703 20.725C78.3676 20.3664 77.8996 19.8602 77.565 19.2054C77.2305 18.5512 77.0635 17.7809 77.0635 16.8952C77.0635 16.2283 77.1592 15.6265 77.3514 15.0894C77.5429 14.5523 77.8152 14.0932 78.1677 13.7113C78.5196 13.3295 78.9374 13.0367 79.4198 12.8333C79.9022 12.63 80.436 12.5283 81.0207 12.5283C81.5241 12.5283 81.9855 12.6018 82.4033 12.7482C82.8216 12.8952 83.1903 13.0964 83.5093 13.3522C83.8283 13.608 84.091 13.9031 84.2963 14.2363C84.5016 14.57 84.6405 14.9248 84.7123 15.3011H83.8492H83.8486Z" fill="white" stroke="white" stroke-width="0.4" stroke-miterlimit="10"/>
<path d="M94 12.644V21.1463H93.1819L87.741 14.0265H87.6691V21.1463H86.8282V12.644H87.6422L93.1011 19.772H93.1729V12.644H94Z" fill="white" stroke="white" stroke-width="0.4" stroke-miterlimit="10"/>
</svg>
